{"accessors":[{"bufferView":0,"byteOffset":0,"componentType":5126,"count":23,"max":[0.2902149963378906,1.2010799560546875,0.005971000194549561],"min":[-0.2902149963378906,1.068219970703125,-0.8663809814453125],"type":"VEC3"},{"bufferView":0,"byteOffset":276,"componentType":5126,"count":64,"max":[-0.5841840209960938,0.876552978515625,-1.2217799072265626],"min":[-1.0785,0.1872860107421875,-2.152169921875],"type":"VEC3"},{"bufferView":0,"byteOffset":1044,"componentType":5126,"count":64,"max":[-0.5841840209960938,0.876552978515625,2.0742199707031254],"min":[-1.0785,0.1872860107421875,1.1438299560546877],"type":"VEC3"},{"bufferView":0,"byteOffset":1812,"componentType":5126,"count":64,"max":[1.0785,0.876552978515625,-1.2217799072265626],"min":[0.5841849975585938,0.1872860107421875,-2.152169921875],"type":"VEC3"},{"bufferView":0,"byteOffset":2580,"componentType":5126,"count":64,"max":[1.0785,0.876552978515625,2.0742199707031254],"min":[0.5841849975585938,0.1872860107421875,1.1438299560546877],"type":"VEC3"},{"bufferView":0,"byteOffset":3348,"componentType":5126,"count":100,"max":[-0.6260460205078126,0.8472989501953125,-1.2617000732421875],"min":[-1.0489300537109377,-0.0012990000247955322,-2.110300048828125],"type":"VEC3"},{"bufferView":0,"byteOffset":4548,"componentType":5126,"count":100,"max":[1.0479500732421876,0.8472989501953125,-1.2617000732421875],"min":[0.6250690307617187,-0.0012990000247955322,-2.110300048828125],"type":"VEC3"},{"bufferView":0,"byteOffset":5748,"componentType":5126,"count":100,"max":[-0.6260460205078126,0.8472989501953125,2.034300048828125],"min":[-1.0489300537109377,-0.0012990000247955322,1.1857000732421877],"type":"VEC3"},{"bufferView":0,"byteOffset":6948,"componentType":5126,"count":100,"max":[1.0479500732421876,0.8472989501953125,2.034300048828125],"min":[0.6250690307617187,-0.0012990000247955322,1.1857000732421877],"type":"VEC3"},{"bufferView":0,"byteOffset":8148,"componentType":5126,"count":1576,"max":[1.2133900146484376,1.49102001953125,2.575210205078125],"min":[-1.2133900146484376,0.16290199279785157,-3.2124799804687504],"type":"VEC3"},{"bufferView":1,"byteOffset":0,"componentType":5126,"count":23,"type":"VEC3"},{"bufferView":1,"byteOffset":276,"componentType":5126,"count":64,"type":"VEC3"},{"bufferView":1,"byteOffset":1044,"componentType":5126,"count":64,"type":"VEC3"},{"bufferView":1,"byteOffset":1812,"componentType":5126,"count":64,"type":"VEC3"},{"bufferView":1,"byteOffset":2580,"componentType":5126,"count":64,"type":"VEC3"},{"bufferView":1,"byteOffset":3348,"componentType":5126,"count":100,"type":"VEC3"},{"bufferView":1,"byteOffset":4548,"componentType":5126,"count":100,"type":"VEC3"},{"bufferView":1,"byteOffset":5748,"componentType":5126,"count":100,"type":"VEC3"},{"bufferView":1,"byteOffset":6948,"componentType":5126,"count":100,"type":"VEC3"},{"bufferView":1,"byteOffset":8148,"componentType":5126,"count":1576,"type":"VEC3"},{"bufferView":2,"byteOffset":0,"componentType":5126,"count":23,"type":"VEC2"},{"bufferView":2,"byteOffset":184,"componentType":5126,"count":64,"type":"VEC2"},{"bufferView":2,"byteOffset":696,"componentType":5126,"count":64,"type":"VEC2"},{"bufferView":2,"byteOffset":1208,"componentType":5126,"count":64,"type":"VEC2"},{"bufferView":2,"byteOffset":1720,"componentType":5126,"count":64,"type":"VEC2"},{"bufferView":2,"byteOffset":2232,"componentType":5126,"count":100,"type":"VEC2"},{"bufferView":2,"byteOffset":3032,"componentType":5126,"count":100,"type":"VEC2"},{"bufferView":2,"byteOffset":3832,"componentType":5126,"count":100,"type":"VEC2"},{"bufferView":2,"byteOffset":4632,"componentType":5126,"count":100,"type":"VEC2"},{"bufferView":2,"byteOffset":5432,"componentType":5126,"count":1576,"type":"VEC2"},{"bufferView":3,"byteOffset":0,"componentType":5123,"count":57,"type":"SCALAR"},{"bufferView":3,"byteOffset":116,"componentType":5123,"count":168,"type":"SCALAR"},{"bufferView":3,"byteOffset":452,"componentType":5123,"count":168,"type":"SCALAR"},{"bufferView":3,"byteOffset":788,"componentType":5123,"count":168,"type":"SCALAR"},{"bufferView":3,"byteOffset":1124,"componentType":5123,"count":168,"type":"SCALAR"},{"bufferView":3,"byteOffset":1460,"componentType":5123,"count":384,"type":"SCALAR"},{"bufferView":3,"byteOffset":2228,"componentType":5123,"count":384,"type":"SCALAR"},{"bufferView":3,"byteOffset":2996,"componentType":5123,"count":384,"type":"SCALAR"},{"bufferView":3,"byteOffset":3764,"componentType":5123,"count":384,"type":"SCALAR"},{"bufferView":3,"byteOffset":4532,"componentType":5123,"count":5112,"type":"SCALAR"}],"asset":{"generator":"Open CASCADE Technology 7.6 [dev.opencascade.org]","version":"2.0","extras":{"Originating system":"Sketchfab-15.55.0"}},"bufferViews":[{"buffer":0,"byteLength":27060,"byteOffset":0,"byteStride":12,"target":34962},{"buffer":0,"byteLength":27060,"byteOffset":27060,"byteStride":12,"target":34962},{"buffer":0,"byteLength":18040,"byteOffset":54120,"byteStride":8,"target":34962},{"buffer":0,"byteLength":14756,"byteOffset":72160,"target":34963}],"buffers":[{"byteLength":86916,"uri":"Mach 6.bin"}],"images":[{"uri":"Mach 6_textures/Glass.png"},{"uri":"Mach 6_textures/Wheels.png"},{"uri":"Mach 6_textures/Mach 6.png"}],"materials":[{"name":"mat_0","pbrMetallicRoughness":{"baseColorFactor":[0.5271151065826416,0.5271151065826416,0.5271151065826416,0.6499999761581421],"baseColorTexture":{"index":0},"metallicFactor":0.0,"roughnessFactor":0.9577051401138306},"doubleSided":true,"alphaMode":"BLEND"},{"name":"mat_1","pbrMetallicRoughness":{"baseColorFactor":[0.5271151065826416,0.5271151065826416,0.5271151065826416,0.9900000095367432],"baseColorTexture":{"index":1},"metallicFactor":0.0,"roughnessFactor":0.9577051401138306},"doubleSided":true,"alphaMode":"BLEND"},{"name":"mat_2","pbrMetallicRoughness":{"baseColorFactor":[0.5271151065826416,0.5271151065826416,0.5271151065826416,1.0],"baseColorTexture":{"index":1},"metallicFactor":1.0,"roughnessFactor":0.9577051401138306},"doubleSided":true},{"name":"mat_3","pbrMetallicRoughness":{"baseColorFactor":[0.5271151065826416,0.5271151065826416,0.5271151065826416,1.0],"baseColorTexture":{"index":2},"metallicFactor":1.0,"roughnessFactor":0.9577051401138306},"doubleSided":true}],"meshes":[{"name":"Glass","primitives":[{"attributes":{"NORMAL":10,"POSITION":0,"TEXCOORD_0":20},"indices":30,"material":0,"mode":4}]},{"name":"Wheel1","primitives":[{"attributes":{"NORMAL":11,"POSITION":1,"TEXCOORD_0":21},"indices":31,"material":1,"mode":4}]},{"name":"Wheel2","primitives":[{"attributes":{"NORMAL":12,"POSITION":2,"TEXCOORD_0":22},"indices":32,"material":1,"mode":4}]},{"name":"Wheel3","primitives":[{"attributes":{"NORMAL":13,"POSITION":3,"TEXCOORD_0":23},"indices":33,"material":1,"mode":4}]},{"name":"Wheel4","primitives":[{"attributes":{"NORMAL":14,"POSITION":4,"TEXCOORD_0":24},"indices":34,"material":1,"mode":4}]},{"name":"Tire1","primitives":[{"attributes":{"NORMAL":15,"POSITION":5,"TEXCOORD_0":25},"indices":35,"material":2,"mode":4}]},{"name":"Tire2","primitives":[{"attributes":{"NORMAL":16,"POSITION":6,"TEXCOORD_0":26},"indices":36,"material":2,"mode":4}]},{"name":"Tire3","primitives":[{"attributes":{"NORMAL":17,"POSITION":7,"TEXCOORD_0":27},"indices":37,"material":2,"mode":4}]},{"name":"Tire3","primitives":[{"attributes":{"NORMAL":18,"POSITION":8,"TEXCOORD_0":28},"indices":38,"material":2,"mode":4}]},{"name":"Mach 6","primitives":[{"attributes":{"NORMAL":19,"POSITION":9,"TEXCOORD_0":29},"indices":39,"material":3,"mode":4}]}],"nodes":[{"children":[1,2,3,4,5,6,7,8,9,10],"rotation":[1.1102230246251566e-16,0.0,0.0,1.0],"scale":[0.009999999776482584,0.009999999776482584,0.009999999776482584],"name":"Sketchfab_model"},{"mesh":0,"name":"Object_5"},{"mesh":1,"name":"Object_6"},{"mesh":2,"name":"Object_7"},{"mesh":3,"name":"Object_8"},{"mesh":4,"name":"Object_9"},{"mesh":5,"name":"Object_10"},{"mesh":6,"name":"Object_11"},{"mesh":7,"name":"Object_12"},{"mesh":8,"name":"Object_13"},{"mesh":9,"name":"Object_14"}],"samplers":[{}],"scene":0,"scenes":[{"nodes":[0]}],"textures":[{"sampler":0,"source":0},{"sampler":0,"source":1},{"sampler":0,"source":2}]}